<?xml version="1.0" encoding="UTF-8"?>
<svg xmlns="http://www.w3.org/2000/svg" xmlns:xlink="http://www.w3.org/1999/xlink" width="95px" height="95px" viewBox="0 0 95 95" version="1.1">
<g id="surface1">
<path style=" stroke:none;fill-rule:nonzero;fill:rgb(0%,0%,0%);fill-opacity:1;" d="M 44.839844 15.296875 C 44.6875 15.332031 43.910156 15.464844 43.128906 15.578125 C 38.324219 16.359375 33.476562 18.960938 29.867188 22.6875 C 25.554688 27.152344 22.988281 33.175781 22.988281 38.855469 L 22.988281 40.433594 L 24.109375 40.148438 L 25.214844 39.863281 L 25.441406 37.753906 C 25.972656 32.394531 27.929688 28.175781 31.597656 24.378906 C 33.496094 22.421875 36.0625 20.558594 38.246094 19.589844 C 39.632812 18.960938 42.464844 18.050781 42.996094 18.050781 C 43.300781 18.050781 43.320312 18.90625 43.28125 32.054688 C 43.226562 46 43.226562 46.074219 42.808594 46.835938 C 41.953125 48.449219 40.886719 49.019531 38.761719 49.019531 C 37.277344 49.019531 37.203125 49 36.519531 48.375 L 35.816406 47.726562 L 35.757812 43.910156 C 35.71875 41.117188 35.644531 40.089844 35.472656 40.089844 C 35.207031 40.070312 23.3125 42.789062 23.199219 42.882812 C 23.066406 42.976562 23.75 46 24.261719 47.5 C 24.527344 48.277344 25.175781 49.742188 25.6875 50.75 C 30.496094 60.019531 40.792969 65.285156 51.109375 63.746094 C 62.777344 62.015625 71.476562 52.554688 72.144531 40.886719 C 72.277344 38.703125 72.351562 38.796875 70.773438 39.195312 L 69.824219 39.445312 L 69.691406 41.34375 C 69.253906 47.613281 65.796875 53.714844 60.535156 57.457031 C 58.3125 59.050781 55.195312 60.476562 52.59375 61.066406 L 52.058594 61.179688 L 52.058594 47.539062 C 52.058594 31.976562 52.023438 32.488281 53.484375 31.199219 C 54.816406 30.019531 56.753906 29.695312 58.253906 30.382812 C 59.527344 30.949219 59.660156 31.464844 59.660156 35.605469 C 59.660156 37.542969 59.71875 39.140625 59.8125 39.140625 C 59.886719 39.140625 62.660156 38.53125 65.988281 37.773438 L 72.011719 36.402344 L 71.894531 35.738281 C 70.128906 25.195312 61.617188 16.910156 51.015625 15.390625 C 49.816406 15.21875 45.5625 15.160156 44.839844 15.296875 Z M 52.117188 18.070312 C 59.8125 19.609375 66.273438 25.328125 68.683594 32.773438 C 68.988281 33.667969 69.160156 34.445312 69.101562 34.503906 C 69.007812 34.597656 62.660156 36.101562 62.320312 36.101562 C 62.242188 36.101562 62.128906 35.015625 62.09375 33.667969 C 61.996094 30.988281 61.75 30.246094 60.570312 29.070312 C 59.566406 28.042969 58.671875 27.738281 56.675781 27.738281 C 53.75 27.738281 51.738281 28.859375 50.445312 31.199219 L 49.875 32.203125 L 49.78125 46.835938 L 49.683594 61.464844 L 47.691406 61.523438 C 45.199219 61.597656 43.1875 61.3125 40.851562 60.570312 C 35.074219 58.730469 30.210938 54.550781 27.605469 49.191406 C 26.753906 47.441406 25.898438 44.914062 26.066406 44.726562 C 26.144531 44.667969 27.757812 44.25 29.695312 43.8125 L 33.210938 43.015625 L 33.289062 45.484375 C 33.34375 47.558594 33.441406 48.109375 33.78125 48.753906 C 34.332031 49.816406 35.71875 51.015625 36.765625 51.300781 C 38.074219 51.660156 40.734375 51.472656 41.894531 50.921875 C 43.28125 50.253906 44.6875 48.753906 45.183594 47.441406 C 45.601562 46.359375 45.601562 46.226562 45.601562 32.015625 L 45.601562 17.6875 L 46.226562 17.613281 C 47.289062 17.460938 50.199219 17.6875 52.117188 18.070312 Z M 52.117188 18.070312 "/>
<path style=" stroke:none;fill-rule:nonzero;fill:rgb(0%,0%,0%);fill-opacity:1;" d="M 30.96875 71.742188 C 30.96875 73.871094 31.027344 74.5 31.21875 74.441406 C 31.367188 74.386719 31.484375 73.738281 31.539062 72.445312 L 31.636719 70.546875 L 32.300781 72.027344 C 32.699219 72.921875 33.078125 73.53125 33.25 73.53125 C 33.421875 73.53125 33.78125 72.941406 34.199219 71.992188 L 34.863281 70.453125 L 34.960938 72.410156 C 35.015625 73.71875 35.132812 74.386719 35.300781 74.441406 C 35.472656 74.5 35.53125 73.871094 35.53125 71.742188 C 35.53125 68.34375 35.359375 68.210938 34.179688 70.773438 C 33.742188 71.761719 33.324219 72.578125 33.25 72.578125 C 33.175781 72.578125 32.757812 71.761719 32.320312 70.773438 C 31.140625 68.210938 30.96875 68.34375 30.96875 71.742188 Z M 30.96875 71.742188 "/>
<path style=" stroke:none;fill-rule:nonzero;fill:rgb(0%,0%,0%);fill-opacity:1;" d="M 43.320312 70.054688 C 43.320312 70.890625 43.261719 71.078125 43.09375 70.90625 C 42.84375 70.660156 41.820312 70.605469 41.496094 70.832031 C 40.886719 71.230469 40.660156 72.636719 41.039062 73.605469 C 41.285156 74.289062 42.027344 74.613281 42.691406 74.308594 C 43.074219 74.136719 43.226562 74.136719 43.320312 74.308594 C 43.394531 74.421875 43.566406 74.460938 43.679688 74.402344 C 43.8125 74.308594 43.890625 73.359375 43.890625 71.609375 C 43.890625 69.386719 43.851562 68.96875 43.605469 68.96875 C 43.378906 68.96875 43.320312 69.21875 43.320312 70.054688 Z M 43.015625 71.476562 C 43.359375 71.972656 43.394531 72.714844 43.128906 73.414062 C 42.996094 73.796875 42.808594 73.910156 42.390625 73.910156 C 41.703125 73.910156 41.421875 73.472656 41.421875 72.410156 C 41.421875 71.175781 42.40625 70.605469 43.015625 71.476562 Z M 43.015625 71.476562 "/>
<path style=" stroke:none;fill-rule:nonzero;fill:rgb(0%,0%,0%);fill-opacity:1;" d="M 45.257812 71.667969 L 45.316406 74.386719 L 46.207031 74.441406 C 47.519531 74.519531 48.527344 74.195312 48.792969 73.625 C 49.113281 72.902344 49.078125 72.445312 48.621094 71.992188 C 48.261719 71.628906 48.261719 71.574219 48.527344 71.269531 C 49 70.738281 48.90625 69.824219 48.335938 69.367188 C 47.9375 69.046875 47.558594 68.96875 46.511719 68.96875 L 45.199219 68.96875 Z M 48.03125 69.769531 C 48.394531 70.128906 48.316406 71.023438 47.898438 71.25 C 47.691406 71.34375 47.140625 71.441406 46.664062 71.441406 L 45.789062 71.441406 L 45.789062 69.539062 L 46.796875 69.539062 C 47.347656 69.539062 47.898438 69.636719 48.03125 69.769531 Z M 47.765625 72.011719 C 48.410156 72.238281 48.601562 73.035156 48.164062 73.53125 C 47.898438 73.816406 47.574219 73.910156 46.796875 73.910156 L 45.789062 73.910156 L 45.789062 72.996094 C 45.789062 72.484375 45.847656 72.011719 45.921875 71.953125 C 46.113281 71.761719 47.214844 71.800781 47.765625 72.011719 Z M 47.765625 72.011719 "/>
<path style=" stroke:none;fill-rule:nonzero;fill:rgb(0%,0%,0%);fill-opacity:1;" d="M 53.390625 69.253906 C 53.390625 69.40625 53.523438 69.539062 53.675781 69.539062 C 53.828125 69.539062 53.960938 69.40625 53.960938 69.253906 C 53.960938 69.101562 53.828125 68.96875 53.675781 68.96875 C 53.523438 68.96875 53.390625 69.101562 53.390625 69.253906 Z M 53.390625 69.253906 "/>
<path style=" stroke:none;fill-rule:nonzero;fill:rgb(0%,0%,0%);fill-opacity:1;" d="M 57.570312 70.054688 C 57.570312 70.890625 57.511719 71.078125 57.34375 70.90625 C 56.941406 70.507812 55.917969 70.621094 55.59375 71.097656 C 55.136719 71.742188 55.195312 73.625 55.671875 74.101562 C 56.089844 74.519531 56.640625 74.59375 57.191406 74.289062 C 57.4375 74.15625 57.589844 74.15625 57.664062 74.289062 C 57.988281 74.820312 58.140625 74.023438 58.140625 71.609375 C 58.140625 69.386719 58.101562 68.96875 57.855469 68.96875 C 57.628906 68.96875 57.570312 69.21875 57.570312 70.054688 Z M 57.265625 71.363281 C 57.628906 71.726562 57.683594 73.339844 57.34375 73.683594 C 57.210938 73.816406 56.867188 73.910156 56.582031 73.910156 C 55.9375 73.910156 55.574219 73.207031 55.746094 72.238281 C 55.917969 71.117188 56.621094 70.71875 57.265625 71.363281 Z M 57.265625 71.363281 "/>
<path style=" stroke:none;fill-rule:nonzero;fill:rgb(0%,0%,0%);fill-opacity:1;" d="M 37.257812 71.175781 C 36.5 72.125 36.804688 73.871094 37.789062 74.289062 C 38.644531 74.632812 40.050781 74.175781 39.597656 73.71875 C 39.425781 73.550781 39.328125 73.550781 39.253906 73.699219 C 39.0625 73.984375 37.941406 73.96875 37.65625 73.683594 C 37.523438 73.550781 37.429688 73.265625 37.429688 73.015625 C 37.429688 72.597656 37.507812 72.578125 38.683594 72.578125 L 39.957031 72.578125 L 39.824219 71.953125 C 39.578125 70.679688 38.019531 70.203125 37.257812 71.175781 Z M 38.988281 71.382812 C 39.613281 71.933594 39.40625 72.199219 38.378906 72.199219 C 37.355469 72.199219 37.144531 71.933594 37.734375 71.363281 C 38.113281 70.964844 38.550781 70.984375 38.988281 71.382812 Z M 38.988281 71.382812 "/>
<path style=" stroke:none;fill-rule:nonzero;fill:rgb(0%,0%,0%);fill-opacity:1;" d="M 50.351562 72.578125 C 50.351562 73.71875 50.425781 74.480469 50.539062 74.480469 C 50.652344 74.480469 50.730469 73.929688 50.730469 73.1875 C 50.730469 71.496094 51.054688 70.964844 52.003906 71.15625 C 52.515625 71.25 52.648438 71.210938 52.59375 71.023438 C 52.476562 70.699219 51.605469 70.605469 51.109375 70.871094 C 50.863281 71.003906 50.730469 71.003906 50.730469 70.871094 C 50.730469 70.773438 50.652344 70.679688 50.539062 70.679688 C 50.425781 70.679688 50.351562 71.441406 50.351562 72.578125 Z M 50.351562 72.578125 "/>
<path style=" stroke:none;fill-rule:nonzero;fill:rgb(0%,0%,0%);fill-opacity:1;" d="M 53.429688 72.523438 C 53.464844 73.777344 53.5625 74.386719 53.730469 74.441406 C 53.902344 74.5 53.960938 74.042969 53.960938 72.597656 C 53.960938 71.003906 53.902344 70.679688 53.675781 70.679688 C 53.429688 70.679688 53.390625 70.964844 53.429688 72.523438 Z M 53.429688 72.523438 "/>
<path style=" stroke:none;fill-rule:nonzero;fill:rgb(0%,0%,0%);fill-opacity:1;" d="M 59.8125 71.003906 C 59.183594 71.726562 59.164062 73.398438 59.792969 74.003906 C 60.117188 74.347656 61.199219 74.386719 61.523438 74.0625 C 61.691406 73.890625 61.75 73.96875 61.75 74.402344 C 61.75 75.296875 61.199219 75.695312 60.191406 75.523438 C 59.433594 75.390625 59.394531 75.410156 59.679688 75.714844 C 60.152344 76.191406 61.292969 76.171875 61.808594 75.65625 C 62.1875 75.277344 62.226562 75.011719 62.28125 72.960938 C 62.339844 70.984375 62.320312 70.679688 62.054688 70.679688 C 61.882812 70.679688 61.75 70.773438 61.75 70.90625 C 61.75 71.078125 61.691406 71.078125 61.523438 70.90625 C 61.179688 70.566406 60.136719 70.621094 59.8125 71.003906 Z M 61.445312 71.476562 C 62.015625 72.277344 61.769531 73.664062 61.027344 73.851562 C 60.058594 74.082031 59.449219 72.464844 60.152344 71.476562 C 60.515625 70.945312 61.085938 70.945312 61.445312 71.476562 Z M 61.445312 71.476562 "/>
<path style=" stroke:none;fill-rule:nonzero;fill:rgb(0%,0%,0%);fill-opacity:1;" d="M 63.953125 71.039062 C 63.515625 71.535156 63.347656 72.808594 63.648438 73.511719 C 64.011719 74.421875 65.207031 74.707031 66.121094 74.117188 C 66.328125 73.96875 66.347656 73.871094 66.195312 73.71875 C 66.023438 73.550781 65.929688 73.550781 65.855469 73.699219 C 65.625 74.0625 64.449219 73.949219 64.21875 73.550781 C 63.78125 72.730469 63.953125 72.578125 65.265625 72.578125 C 66.441406 72.578125 66.5 72.5625 66.5 72.125 C 66.5 71.878906 66.328125 71.460938 66.101562 71.175781 C 65.605469 70.546875 64.46875 70.472656 63.953125 71.039062 Z M 65.589844 71.382812 C 66.214844 71.933594 66.007812 72.199219 64.980469 72.199219 C 63.953125 72.199219 63.746094 71.933594 64.335938 71.363281 C 64.714844 70.964844 65.152344 70.984375 65.589844 71.382812 Z M 65.589844 71.382812 "/>
</g>
</svg>
