<?xml version="1.0" standalone="no"?>
<!DOCTYPE svg PUBLIC "-//W3C//DTD SVG 20010904//EN"
 "http://www.w3.org/TR/2001/REC-SVG-20010904/DTD/svg10.dtd">
<svg version="1.0" xmlns="http://www.w3.org/2000/svg"
 width="500.000000pt" height="500.000000pt" viewBox="0 0 500.000000 500.000000"
 preserveAspectRatio="xMidYMid meet">

<g transform="translate(0.000000,500.000000) scale(0.100000,-0.100000)"
fill="#000000" stroke="none">
<path d="M2360 4195 c-8 -2 -49 -9 -90 -15 -253 -41 -508 -178 -698 -374 -227
-235 -362 -552 -362 -851 l0 -83 59 15 58 15 12 111 c28 282 131 504 324 704
100 103 235 201 350 252 73 33 222 81 250 81 16 0 17 -45 15 -737 -3 -734 -3
-738 -25 -778 -45 -85 -101 -115 -213 -115 -78 0 -82 1 -118 34 l-37 34 -3
201 c-2 147 -6 201 -15 201 -14 1 -640 -142 -646 -147 -7 -5 29 -164 56 -243
14 -41 48 -118 75 -171 253 -488 795 -765 1338 -684 614 91 1072 589 1107
1203 7 115 11 110 -72 89 l-50 -13 -7 -100 c-23 -330 -205 -651 -482 -848
-117 -84 -281 -159 -418 -190 l-28 -6 0 718 c0 819 -2 792 75 860 70 62 172
79 251 43 67 -30 74 -57 74 -275 0 -102 3 -186 8 -186 4 0 150 32 325 72 l317
72 -6 35 c-93 555 -541 991 -1099 1071 -63 9 -287 12 -325 5z m383 -146 c405
-81 745 -382 872 -774 16 -47 25 -88 22 -91 -5 -5 -339 -84 -357 -84 -4 0 -10
57 -12 128 -5 141 -18 180 -80 242 -53 54 -100 70 -205 70 -154 0 -260 -59
-328 -182 l-30 -53 -5 -770 -5 -770 -105 -3 c-131 -4 -237 11 -360 50 -304 97
-560 317 -697 599 -45 92 -90 225 -81 235 4 3 89 25 191 48 l185 42 4 -130 c3
-109 8 -138 26 -172 29 -56 102 -119 157 -134 69 -19 209 -9 270 20 73 35 147
114 173 183 22 57 22 64 22 812 l0 754 33 4 c56 8 209 -4 310 -24z"/>
<path d="M1630 1224 c0 -112 3 -145 13 -142 8 3 14 37 17 105 l5 100 35 -78
c21 -47 41 -79 50 -79 9 0 28 31 50 81 l35 81 5 -103 c3 -69 9 -104 18 -107 9
-3 12 30 12 142 0 179 -9 186 -71 51 -23 -52 -45 -95 -49 -95 -4 0 -26 43 -49
95 -62 135 -71 128 -71 -51z"/>
<path d="M2280 1313 c0 -44 -3 -54 -12 -45 -13 13 -67 16 -84 4 -32 -21 -44
-95 -24 -146 13 -36 52 -53 87 -37 20 9 28 9 33 0 4 -6 13 -8 19 -5 7 5 11 55
11 147 0 117 -2 139 -15 139 -12 0 -15 -13 -15 -57z m-16 -75 c18 -26 20 -65
6 -102 -7 -20 -17 -26 -39 -26 -36 0 -51 23 -51 79 0 65 52 95 84 49z"/>
<path d="M2382 1228 l3 -143 47 -3 c69 -4 122 13 136 43 17 38 15 62 -9 86
-19 19 -19 22 -5 38 25 28 20 76 -10 100 -21 17 -41 21 -96 21 l-69 0 3 -142z
m146 100 c19 -19 15 -66 -7 -78 -11 -5 -40 -10 -65 -10 l-46 0 0 50 0 50 53 0
c29 0 58 -5 65 -12z m-14 -118 c34 -12 44 -54 21 -80 -14 -15 -31 -20 -72 -20
l-53 0 0 48 c0 27 3 52 7 55 10 10 68 8 97 -3z"/>
<path d="M2810 1355 c0 -8 7 -15 15 -15 8 0 15 7 15 15 0 8 -7 15 -15 15 -8 0
-15 -7 -15 -15z"/>
<path d="M3030 1313 c0 -44 -3 -54 -12 -45 -21 21 -75 15 -92 -10 -24 -34 -21
-133 4 -158 22 -22 51 -26 80 -10 13 7 21 7 25 0 17 -28 25 14 25 141 0 117
-2 139 -15 139 -12 0 -15 -13 -15 -57z m-16 -69 c19 -19 22 -104 4 -122 -7 -7
-25 -12 -40 -12 -34 0 -53 37 -44 88 9 59 46 80 80 46z"/>
<path d="M1961 1254 c-40 -50 -24 -142 28 -164 45 -18 119 6 95 30 -9 9 -14 9
-18 1 -10 -15 -69 -14 -84 1 -7 7 -12 22 -12 35 0 22 4 23 66 23 l67 0 -7 33
c-13 67 -95 92 -135 41z m91 -11 c33 -29 22 -43 -32 -43 -54 0 -65 14 -34 44
20 21 43 20 66 -1z"/>
<path d="M2650 1180 c0 -60 4 -100 10 -100 6 0 10 29 10 68 0 89 17 117 67
107 27 -5 34 -3 31 7 -6 17 -52 22 -78 8 -13 -7 -20 -7 -20 0 0 5 -4 10 -10
10 -6 0 -10 -40 -10 -100z"/>
<path d="M2812 1183 c2 -66 7 -98 16 -101 9 -3 12 21 12 97 0 84 -3 101 -15
101 -13 0 -15 -15 -13 -97z"/>
<path d="M3148 1263 c-33 -38 -34 -126 -1 -158 17 -18 74 -20 91 -3 9 9 12 5
12 -18 0 -47 -29 -68 -82 -59 -40 7 -42 6 -27 -10 25 -25 85 -24 112 3 20 20
22 34 25 142 3 104 2 120 -12 120 -9 0 -16 -5 -16 -12 0 -9 -3 -9 -12 0 -18
18 -73 15 -90 -5z m86 -25 c30 -42 17 -115 -22 -125 -51 -12 -83 73 -46 125
19 28 49 28 68 0z"/>
<path d="M3366 1261 c-23 -26 -32 -93 -16 -130 19 -48 82 -63 130 -32 11 8 12
13 4 21 -9 9 -14 9 -18 1 -12 -19 -74 -13 -86 8 -23 43 -14 51 55 51 62 0 65
1 65 24 0 13 -9 35 -21 50 -26 33 -86 37 -113 7z m86 -18 c33 -29 22 -43 -32
-43 -54 0 -65 14 -34 44 20 21 43 20 66 -1z"/>
</g>
</svg>
