<?xml version="1.0" encoding="UTF-8"?>
<svg xmlns="http://www.w3.org/2000/svg" xmlns:xlink="http://www.w3.org/1999/xlink" width="150px" height="150px" viewBox="0 0 150 150" version="1.1">
<g id="surface1">
<path style=" stroke:none;fill-rule:nonzero;fill:rgb(0%,0%,0%);fill-opacity:1;" d="M 0 75 L 0 150 L 150 150 L 150 0 L 0 0 Z M 92.308594 37.949219 C 100.140625 41.820312 103.621094 53.578125 99.480469 62.28125 C 96.421875 68.730469 89.191406 75.210938 79.050781 80.578125 L 75.839844 82.289062 L 76.019531 80.820312 C 76.140625 80.011719 76.289062 78.660156 76.378906 77.851562 C 76.589844 76.230469 76.828125 75.929688 78 75.898438 C 79.050781 75.871094 81.300781 74.820312 82.289062 73.859375 C 82.769531 73.410156 83.488281 72.421875 83.878906 71.640625 C 84.839844 69.71875 86.429688 63.988281 86.339844 62.699219 C 86.25 61.410156 86.699219 58.199219 86.96875 58.199219 C 87.089844 58.199219 87.539062 59.699219 88.019531 61.5 C 88.5 63.328125 88.949219 64.769531 89.011719 64.679688 C 89.070312 64.621094 88.679688 62.820312 88.109375 60.71875 L 87.089844 56.851562 L 87.511719 53.609375 C 87.988281 49.828125 87.75 48.421875 86.398438 47.308594 C 85.921875 46.890625 84.929688 46.46875 84.238281 46.351562 C 83.519531 46.230469 82.679688 45.929688 82.351562 45.71875 C 81.628906 45.210938 80.339844 45.179688 79.859375 45.660156 C 79.648438 45.871094 79.5 46.441406 79.5 46.949219 C 79.5 47.460938 79.648438 48.03125 79.859375 48.238281 C 80.371094 48.75 81.898438 48.691406 82.53125 48.121094 C 82.949219 47.730469 83.25 47.730469 84.238281 47.96875 C 84.898438 48.148438 85.558594 48.480469 85.710938 48.691406 C 86.160156 49.230469 86.339844 50.730469 86.101562 51.75 C 85.921875 52.441406 85.859375 52.5 85.828125 51.988281 C 85.738281 50.25 85.199219 51.421875 84.148438 55.589844 C 83.519531 58.109375 82.800781 60.390625 82.558594 60.660156 C 82.261719 61.019531 81.691406 61.199219 80.941406 61.199219 C 79.558594 61.199219 79.320312 61.621094 78.421875 65.519531 C 77.730469 68.488281 77.820312 68.910156 76.320312 56.039062 C 75.691406 50.640625 75.089844 46.320312 74.96875 46.441406 C 74.878906 46.558594 74.191406 50.941406 73.46875 56.160156 C 72.78125 61.378906 72.058594 65.609375 71.941406 65.519531 C 71.820312 65.429688 71.699219 65.191406 71.699219 64.949219 C 71.699219 64.710938 71.429688 63.78125 71.070312 62.851562 L 70.46875 61.199219 L 67.949219 61.199219 C 66.570312 61.199219 65.371094 61.078125 65.28125 60.929688 C 64.949219 60.421875 64.171875 55.261719 63.988281 52.46875 C 63.78125 49.078125 64.019531 48.449219 65.699219 48 C 66.691406 47.730469 67.019531 47.761719 67.558594 48.148438 C 68.371094 48.691406 69.628906 48.75 70.140625 48.238281 C 70.351562 48.03125 70.5 47.460938 70.5 46.949219 C 70.5 45.328125 69.210938 44.820312 67.558594 45.75 C 67.109375 45.988281 66.148438 46.320312 65.429688 46.53125 C 64.710938 46.710938 63.71875 47.21875 63.238281 47.699219 C 62.460938 48.480469 62.398438 48.71875 62.398438 50.761719 C 62.398438 51.960938 62.671875 54.691406 63 56.820312 C 63.328125 58.949219 63.601562 60.808594 63.601562 60.929688 C 63.601562 61.441406 61.890625 61.199219 61.378906 60.628906 C 61.078125 60.300781 60.539062 59.070312 60.179688 57.898438 L 59.488281 55.738281 L 59.308594 56.910156 C 59.039062 58.410156 59.128906 59.578125 59.371094 58.199219 L 59.578125 57.148438 L 60.089844 58.648438 C 60.898438 61.019531 61.351562 61.5 62.730469 61.5 C 63.929688 61.5 63.929688 61.53125 63.75 62.371094 C 63.359375 64.171875 65.671875 71.398438 67.261719 73.320312 C 68.21875 74.488281 70.738281 75.898438 71.910156 75.898438 C 73.199219 75.898438 73.5 76.199219 73.5 77.519531 C 73.53125 78.179688 73.710938 79.078125 73.949219 79.5 C 74.398438 80.28125 74.550781 81.660156 74.21875 81.988281 C 73.769531 82.410156 65.851562 77.851562 61.738281 74.789062 C 56.609375 70.980469 52.320312 66.210938 50.550781 62.371094 C 48.089844 56.941406 48.328125 50.070312 51.210938 44.609375 C 52.769531 41.671875 55.441406 38.96875 58.078125 37.738281 C 59.96875 36.839844 60.421875 36.75 63 36.75 C 65.609375 36.75 66.03125 36.839844 67.800781 37.710938 C 69.78125 38.671875 72.960938 41.550781 74.160156 43.441406 C 74.488281 43.980469 74.851562 44.398438 75 44.398438 C 75.121094 44.398438 75.601562 43.859375 76.050781 43.199219 C 77.371094 41.308594 80.460938 38.550781 82.320312 37.648438 C 85.53125 36.089844 88.710938 36.179688 92.308594 37.949219 Z M 76.378906 60.808594 C 77.011719 66.300781 77.609375 70.710938 77.699219 70.558594 C 77.820312 70.441406 78.148438 69.210938 78.421875 67.828125 C 78.71875 66.421875 79.230469 64.441406 79.53125 63.390625 C 80.128906 61.53125 80.128906 61.5 81.238281 61.5 C 83.128906 61.5 83.28125 61.261719 84.480469 56.339844 C 84.929688 54.390625 85.441406 52.921875 85.589844 53.011719 C 86.21875 53.398438 85.019531 61.648438 84.269531 62.128906 C 84.058594 62.25 83.460938 63.929688 82.890625 65.878906 C 81.78125 69.78125 80.941406 71.488281 79.769531 72.359375 C 78.71875 73.140625 75.449219 73.558594 73.050781 73.230469 C 69.601562 72.71875 68.761719 71.671875 67.171875 65.941406 C 66.660156 64.078125 66.03125 62.308594 65.761719 62.011719 C 65.308594 61.5 65.398438 61.46875 67.800781 61.558594 L 70.320312 61.648438 L 71.21875 64.738281 C 71.820312 66.75 72.179688 67.648438 72.300781 67.289062 C 72.421875 66.988281 73.019531 63 73.679688 58.441406 C 74.308594 53.851562 74.910156 50.28125 75.03125 50.488281 C 75.121094 50.671875 75.71875 55.351562 76.378906 60.808594 Z M 70.5 86.820312 C 70.5 87.058594 69.75 90.328125 68.820312 94.078125 C 67.171875 100.828125 67.019531 102.210938 67.558594 104.730469 C 67.621094 104.96875 67.109375 105.210938 66.148438 105.359375 C 64.921875 105.601562 64.621094 105.570312 64.289062 105.121094 C 63.960938 104.640625 63.839844 104.640625 62.878906 105.121094 C 62.308594 105.390625 61.171875 105.601562 60.328125 105.601562 C 59.070312 105.601562 58.648438 105.449219 57.78125 104.699219 C 56.460938 103.53125 55.980469 102.089844 56.160156 99.78125 C 56.371094 97.46875 57.179688 95.820312 58.921875 94.289062 C 60.449219 92.941406 61.949219 92.398438 64.078125 92.398438 L 65.550781 92.398438 L 66.121094 89.851562 C 66.421875 88.441406 66.808594 87.210938 66.960938 87.121094 C 67.171875 86.96875 68.371094 86.730469 70.289062 86.429688 C 70.410156 86.429688 70.5 86.578125 70.5 86.820312 Z M 117.75 86.761719 C 117.691406 86.96875 116.878906 90.390625 115.921875 94.351562 C 114.300781 101.191406 114.238281 101.640625 114.570312 103.320312 C 114.75 104.308594 114.839844 105.148438 114.808594 105.179688 C 114.78125 105.210938 114.058594 105.300781 113.191406 105.421875 C 111.808594 105.601562 111.628906 105.539062 111.449219 105.03125 C 111.269531 104.429688 111.269531 104.429688 110.21875 105.058594 C 109.378906 105.539062 108.808594 105.628906 107.339844 105.539062 C 105.75 105.421875 105.390625 105.269531 104.671875 104.460938 C 101.761719 101.21875 103.46875 95.160156 107.820312 93.121094 C 108.839844 92.640625 109.890625 92.398438 111.03125 92.398438 L 112.710938 92.398438 L 113.070312 90.808594 C 113.910156 86.96875 113.851562 87.058594 115.589844 86.761719 C 117.78125 86.339844 117.898438 86.371094 117.75 86.761719 Z M 102.839844 87.179688 C 104.339844 88.230469 103.140625 90.898438 101.191406 90.898438 C 99 90.898438 98.308594 89.128906 99.871094 87.570312 C 100.859375 86.609375 101.820312 86.460938 102.839844 87.179688 Z M 83.039062 89.101562 C 84.511719 89.941406 85.019531 91.019531 84.808594 92.941406 C 84.691406 94.109375 84.449219 94.53125 83.460938 95.429688 C 82.289062 96.449219 82.289062 96.511719 82.859375 96.871094 C 83.191406 97.050781 83.640625 97.710938 83.878906 98.308594 C 84.839844 100.589844 83.308594 103.46875 80.398438 104.820312 C 79.230469 105.359375 78.480469 105.449219 74.789062 105.449219 C 72 105.449219 70.410156 105.328125 70.199219 105.121094 C 69.929688 104.851562 70.320312 102.78125 71.730469 96.871094 C 72.75 92.519531 73.648438 88.890625 73.710938 88.800781 C 73.980469 88.5 76.828125 88.261719 79.230469 88.320312 C 81.269531 88.410156 82.078125 88.558594 83.039062 89.101562 Z M 29.699219 88.648438 C 29.699219 88.890625 31.171875 96.929688 31.351562 97.769531 C 31.5 98.371094 31.980469 97.800781 34.53125 94.019531 C 36.210938 91.558594 37.769531 89.308594 38.039062 89.011719 C 38.371094 88.648438 38.941406 88.5 40.109375 88.5 C 41.640625 88.5 41.699219 88.53125 41.699219 89.308594 C 41.699219 90.269531 40.410156 98.820312 39.71875 102.660156 L 39.238281 105.300781 L 37.320312 105.300781 C 35.460938 105.300781 35.398438 105.269531 35.550781 104.609375 C 36 102.78125 37.46875 94.949219 37.378906 94.859375 C 37.320312 94.828125 36.089844 96.660156 34.621094 99 L 31.949219 103.199219 L 30.539062 103.199219 C 28.890625 103.199219 29.101562 103.621094 28.320312 98.550781 C 28.050781 96.71875 27.71875 95.128906 27.601562 95.011719 C 27.480469 94.890625 26.761719 97.140625 25.949219 100.050781 L 24.511719 105.300781 L 20.761719 105.300781 L 21.78125 101.761719 C 22.921875 97.890625 24.660156 92.519531 25.558594 90.058594 L 26.128906 88.5 L 27.929688 88.5 C 28.890625 88.5 29.699219 88.558594 29.699219 88.648438 Z M 52.621094 92.519531 C 54.058594 93.121094 54.898438 94.351562 54.898438 95.851562 C 54.898438 98.488281 52.558594 100.351562 48.839844 100.710938 C 47.191406 100.859375 46.890625 100.949219 47.011719 101.371094 C 47.429688 102.570312 49.320312 102.960938 51.539062 102.328125 C 52.378906 102.089844 52.5 102.121094 52.5 102.570312 C 52.5 102.871094 52.589844 103.53125 52.679688 104.011719 C 52.828125 104.820312 52.769531 104.941406 51.871094 105.269531 C 50.21875 105.839844 46.890625 105.691406 45.601562 104.96875 C 43.890625 104.011719 43.351562 102.839844 43.351562 100.199219 C 43.351562 98.28125 43.46875 97.710938 44.25 96.328125 C 45.328125 94.410156 46.800781 93.121094 48.601562 92.550781 C 50.339844 92.011719 51.390625 92.011719 52.621094 92.519531 Z M 129.421875 92.820312 L 130.46875 93.238281 L 130.050781 95.011719 C 127.199219 107.128906 126.839844 107.941406 124.050781 109.230469 C 122.640625 109.890625 119.070312 110.011719 117.269531 109.441406 C 115.921875 109.050781 115.921875 109.050781 116.578125 107.371094 C 117 106.351562 117.179688 106.171875 117.71875 106.351562 C 119.25 106.800781 121.53125 106.859375 122.398438 106.5 C 123.148438 106.199219 124.199219 104.910156 124.199219 104.308594 C 124.199219 104.25 123.421875 104.28125 122.460938 104.339844 C 119.191406 104.578125 117.75 103.109375 117.78125 99.601562 C 117.808594 95.96875 119.878906 93.449219 123.75 92.371094 C 124.980469 92.039062 128.128906 92.28125 129.421875 92.820312 Z M 141.511719 92.851562 C 143.160156 93.929688 143.519531 96.660156 142.289062 98.371094 C 141.449219 99.539062 139.289062 100.5 137.011719 100.710938 C 135.898438 100.800781 135 101.011719 135 101.128906 C 135 101.28125 135.300781 101.699219 135.628906 102.03125 C 136.230469 102.628906 136.5 102.660156 138.480469 102.480469 L 140.699219 102.300781 L 140.699219 103.171875 C 140.699219 103.648438 140.789062 104.25 140.878906 104.488281 C 141.300781 105.660156 135.808594 106.019531 133.769531 104.96875 C 130.558594 103.351562 130.589844 97.679688 133.828125 94.441406 C 136.019531 92.25 139.46875 91.53125 141.511719 92.851562 Z M 96.179688 92.640625 C 96.449219 92.789062 96.390625 93.210938 96.03125 94.199219 L 95.550781 95.519531 L 93.628906 95.550781 L 91.738281 95.550781 L 90.71875 99.75 C 90.148438 102.058594 89.640625 104.25 89.550781 104.609375 C 89.398438 105.238281 89.21875 105.300781 87.601562 105.300781 C 86.070312 105.300781 85.800781 105.210938 85.828125 104.761719 C 85.828125 104.488281 86.488281 101.761719 87.238281 98.699219 L 88.648438 93.148438 L 89.851562 92.789062 C 91.171875 92.398438 95.671875 92.28125 96.179688 92.640625 Z M 102.300781 92.671875 C 102.300781 92.941406 100.171875 101.96875 99.570312 104.160156 L 99.269531 105.300781 L 97.5 105.300781 C 96.511719 105.300781 95.699219 105.238281 95.699219 105.179688 C 95.699219 105 98.371094 93.628906 98.578125 92.910156 C 98.699219 92.488281 99.089844 92.398438 100.53125 92.398438 C 101.488281 92.398438 102.300781 92.519531 102.300781 92.671875 Z M 102.300781 92.671875 "/>
<path style=" stroke:none;fill-rule:nonzero;fill:rgb(0%,0%,0%);fill-opacity:1;" d="M 58.859375 60.898438 C 58.859375 61.320312 58.921875 61.46875 59.011719 61.261719 C 59.070312 61.078125 59.070312 60.71875 59.011719 60.511719 C 58.921875 60.328125 58.859375 60.480469 58.859375 60.898438 Z M 58.859375 60.898438 "/>
<path style=" stroke:none;fill-rule:nonzero;fill:rgb(0%,0%,0%);fill-opacity:1;" d="M 90.328125 63.78125 C 90.328125 64.109375 90.421875 64.199219 90.511719 63.960938 C 90.601562 63.75 90.570312 63.480469 90.480469 63.390625 C 90.390625 63.269531 90.300781 63.449219 90.328125 63.78125 Z M 90.328125 63.78125 "/>
<path style=" stroke:none;fill-rule:nonzero;fill:rgb(0%,0%,0%);fill-opacity:1;" d="M 90.03125 64.980469 C 90.03125 65.308594 90.121094 65.398438 90.210938 65.160156 C 90.300781 64.949219 90.269531 64.679688 90.179688 64.589844 C 90.089844 64.46875 90 64.648438 90.03125 64.980469 Z M 90.03125 64.980469 "/>
<path style=" stroke:none;fill-rule:nonzero;fill:rgb(0%,0%,0%);fill-opacity:1;" d="M 89.28125 65.851562 C 89.339844 66.179688 89.398438 66.660156 89.398438 66.898438 C 89.398438 67.289062 89.429688 67.289062 89.699219 66.898438 C 90.058594 66.328125 90.089844 65.609375 89.730469 65.851562 C 89.578125 65.941406 89.398438 65.851562 89.308594 65.640625 C 89.25 65.429688 89.21875 65.519531 89.28125 65.851562 Z M 89.28125 65.851562 "/>
<path style=" stroke:none;fill-rule:nonzero;fill:rgb(0%,0%,0%);fill-opacity:1;" d="M 61.890625 96 C 59.519531 97.441406 58.949219 101.941406 61.078125 102.480469 C 62.671875 102.898438 63.328125 102.148438 63.898438 99.269531 C 64.199219 97.859375 64.53125 96.390625 64.648438 96.058594 C 64.828125 95.460938 64.738281 95.398438 63.839844 95.398438 C 63.300781 95.398438 62.429688 95.671875 61.890625 96 Z M 61.890625 96 "/>
<path style=" stroke:none;fill-rule:nonzero;fill:rgb(0%,0%,0%);fill-opacity:1;" d="M 109.171875 95.851562 C 106.828125 97.109375 106.140625 101.96875 108.210938 102.480469 C 109.828125 102.898438 110.429688 102.148438 111.179688 98.851562 C 111.570312 97.199219 111.871094 95.761719 111.871094 95.609375 C 111.898438 95.25 109.980469 95.398438 109.171875 95.851562 Z M 109.171875 95.851562 "/>
<path style=" stroke:none;fill-rule:nonzero;fill:rgb(0%,0%,0%);fill-opacity:1;" d="M 76.410156 93.300781 L 75.960938 95.101562 L 77.578125 95.101562 C 79.5 95.101562 80.519531 94.679688 80.96875 93.691406 C 81.238281 93.089844 81.238281 92.789062 80.851562 92.21875 C 80.460938 91.589844 80.160156 91.5 78.628906 91.5 L 76.859375 91.5 Z M 76.410156 93.300781 "/>
<path style=" stroke:none;fill-rule:nonzero;fill:rgb(0%,0%,0%);fill-opacity:1;" d="M 75.03125 99.238281 C 74.851562 99.871094 74.609375 100.800781 74.519531 101.339844 L 74.339844 102.300781 L 76.441406 102.300781 C 78.238281 102.300781 78.691406 102.179688 79.320312 101.609375 C 80.371094 100.648438 80.519531 99.839844 79.769531 98.910156 C 79.230469 98.191406 78.960938 98.101562 77.25 98.101562 L 75.328125 98.101562 Z M 75.03125 99.238281 "/>
<path style=" stroke:none;fill-rule:nonzero;fill:rgb(0%,0%,0%);fill-opacity:1;" d="M 48.871094 95.550781 C 48.089844 95.96875 47.101562 97.230469 47.101562 97.800781 C 47.101562 98.28125 49.261719 98.160156 50.398438 97.558594 C 51.539062 97.019531 51.871094 96.238281 51.300781 95.550781 C 50.851562 94.980469 49.890625 95.011719 48.871094 95.550781 Z M 48.871094 95.550781 "/>
<path style=" stroke:none;fill-rule:nonzero;fill:rgb(0%,0%,0%);fill-opacity:1;" d="M 123.238281 95.878906 C 122.789062 96.121094 122.191406 96.71875 121.949219 97.199219 C 121.410156 98.25 121.351562 100.53125 121.859375 101.039062 C 122.339844 101.519531 124.351562 101.488281 124.710938 101.011719 C 124.890625 100.828125 125.25 99.628906 125.519531 98.398438 C 125.820312 97.171875 126.089844 95.96875 126.179688 95.761719 C 126.328125 95.25 124.261719 95.308594 123.238281 95.878906 Z M 123.238281 95.878906 "/>
<path style=" stroke:none;fill-rule:nonzero;fill:rgb(0%,0%,0%);fill-opacity:1;" d="M 137.21875 95.398438 C 136.46875 95.699219 135.300781 97.109375 135.300781 97.679688 C 135.300781 98.761719 139.289062 97.769531 139.648438 96.601562 C 140.039062 95.371094 138.808594 94.769531 137.21875 95.398438 Z M 137.21875 95.398438 "/>
</g>
</svg>
